<svg xmlns="http://www.w3.org/2000/svg" xmlns:xlink="http://www.w3.org/1999/xlink" width="500" zoomAndPan="magnify" viewBox="0 0 375 374.999991" height="500" preserveAspectRatio="xMidYMid meet" version="1.0"><defs><clipPath id="065917a1a2"><path d="M 170 76 L 289 76 L 289 173 L 170 173 Z M 170 76 " clip-rule="nonzero"/></clipPath><clipPath id="8bf6ead302"><path d="M 194.15625 52.726562 L 305.625 113.0625 L 265.285156 187.59375 L 153.816406 127.261719 Z M 194.15625 52.726562 " clip-rule="nonzero"/></clipPath><clipPath id="8ebbaf4f75"><path d="M 194.15625 52.726562 L 305.625 113.0625 L 265.285156 187.59375 L 153.816406 127.261719 Z M 194.15625 52.726562 " clip-rule="nonzero"/></clipPath><clipPath id="41dd5d731e"><path d="M 169 76 L 289 76 L 289 173 L 169 173 Z M 169 76 " clip-rule="nonzero"/></clipPath><clipPath id="a207cb8e64"><path d="M 194.15625 52.726562 L 305.625 113.0625 L 265.285156 187.59375 L 153.816406 127.261719 Z M 194.15625 52.726562 " clip-rule="nonzero"/></clipPath><clipPath id="be7ed34c45"><path d="M 194.15625 52.726562 L 305.625 113.0625 L 265.285156 187.59375 L 153.816406 127.261719 Z M 194.15625 52.726562 " clip-rule="nonzero"/></clipPath><clipPath id="8746772c5c"><path d="M 130 114.019531 L 158 114.019531 L 158 193 L 130 193 Z M 130 114.019531 " clip-rule="nonzero"/></clipPath><clipPath id="2d67bcc718"><path d="M 112 270 L 263 270 L 263 308 L 112 308 Z M 112 270 " clip-rule="nonzero"/></clipPath><clipPath id="7a3a26dbf1"><path d="M 262.855469 269.878906 L 262.109375 309.625 L 112.136719 306.800781 L 112.882812 267.058594 Z M 262.855469 269.878906 " clip-rule="nonzero"/></clipPath><clipPath id="ee3f7893bf"><path d="M 262.855469 269.878906 L 262.109375 309.625 L 112.136719 306.800781 L 112.882812 267.058594 Z M 262.855469 269.878906 " clip-rule="nonzero"/></clipPath></defs><g clip-path="url(#065917a1a2)"><g clip-path="url(#8bf6ead302)"><g clip-path="url(#8ebbaf4f75)"><path fill="#ffffff" d="M 212.949219 84.15625 C 213.128906 83.953125 213.3125 83.757812 213.496094 83.566406 C 214.351562 82.679688 215.265625 81.902344 216.207031 81.210938 C 220.226562 78.257812 224.902344 76.941406 229.714844 76.917969 C 234.328125 76.898438 239.066406 78.078125 243.480469 80.128906 C 249.980469 83.148438 255.761719 88.074219 259.375 93.859375 C 262.011719 98.078125 263.488281 102.757812 263.300781 107.488281 C 263.277344 107.980469 263.261719 108.46875 263.257812 108.945312 C 273.527344 110.515625 280.367188 115.238281 284.269531 121.210938 C 290.277344 130.410156 289.335938 142.648438 283.042969 151.328125 C 276.207031 160.753906 263.074219 166.070312 245.726562 158.523438 L 238.625 171.648438 C 238.449219 171.972656 238.113281 172.179688 237.746094 172.191406 C 237.375 172.203125 237.027344 172.019531 236.832031 171.703125 C 224.292969 151.683594 205.535156 141.46875 180.460938 141.210938 C 180.097656 141.207031 179.761719 141.011719 179.578125 140.699219 C 179.394531 140.386719 179.386719 140 179.5625 139.679688 L 185.335938 129.007812 C 168.628906 119.0625 167.09375 103.027344 173.832031 91.871094 C 180.644531 80.601562 195.992188 74.210938 212.949219 84.15625 Z M 212.949219 84.15625 " fill-opacity="1" fill-rule="evenodd"/></g></g></g><g clip-path="url(#41dd5d731e)"><g clip-path="url(#a207cb8e64)"><g clip-path="url(#be7ed34c45)"><path fill="#f5f5dc" d="M 212.921875 83.984375 C 213.078125 83.808594 213.234375 83.636719 213.398438 83.472656 C 214.257812 82.578125 215.175781 81.796875 216.125 81.097656 C 220.167969 78.132812 224.871094 76.808594 229.710938 76.785156 C 234.34375 76.761719 239.105469 77.945312 243.535156 80.003906 C 250.058594 83.039062 255.863281 87.980469 259.492188 93.789062 C 262.140625 98.035156 263.628906 102.738281 263.4375 107.5 C 263.417969 107.949219 263.402344 108.390625 263.398438 108.828125 C 273.648438 110.425781 280.480469 115.160156 284.386719 121.140625 C 290.425781 130.386719 289.480469 142.6875 283.152344 151.414062 C 276.304688 160.863281 263.15625 166.210938 245.789062 158.703125 L 238.746094 171.71875 C 238.546875 172.085938 238.164062 172.320312 237.746094 172.332031 C 237.328125 172.34375 236.9375 172.136719 236.714844 171.78125 C 224.203125 151.800781 205.480469 141.609375 180.460938 141.351562 C 180.046875 141.347656 179.667969 141.125 179.460938 140.769531 C 179.25 140.417969 179.242188 139.976562 179.4375 139.617188 L 185.152344 129.058594 C 168.464844 119.058594 166.957031 102.988281 173.714844 91.804688 C 180.546875 80.496094 195.921875 74.070312 212.921875 83.984375 Z M 214.785156 124.496094 C 207.925781 122.140625 200.4375 120.894531 192.328125 120.738281 L 182.421875 139.039062 C 206.652344 139.785156 225.015625 149.78125 237.621094 168.851562 L 246.769531 151.949219 C 228.550781 151.320312 217.433594 139.1875 214.855469 124.730469 C 214.824219 124.65625 214.800781 124.578125 214.785156 124.496094 Z M 271.890625 126.253906 C 268.339844 125.375 265.8125 123.597656 264.074219 121.09375 C 263.277344 119.941406 262.65625 118.628906 262.199219 117.175781 C 261.320312 114.398438 261.066406 111.097656 261.179688 107.414062 C 261.332031 103.101562 259.929688 98.859375 257.519531 95.023438 C 254.101562 89.597656 248.65625 84.984375 242.542969 82.140625 C 238.429688 80.226562 234.015625 79.121094 229.714844 79.109375 C 225.339844 79.101562 221.085938 80.230469 217.386719 82.847656 C 216.515625 83.464844 215.675781 84.167969 214.863281 84.945312 C 214.089844 85.683594 213.335938 86.484375 212.625 87.378906 C 211.519531 88.742188 210.292969 90.949219 209.28125 93.210938 C 208.207031 95.621094 207.371094 98.078125 207.230469 99.660156 C 207.21875 99.878906 207.03125 100.050781 206.808594 100.039062 C 206.585938 100.03125 206.414062 99.839844 206.421875 99.617188 C 206.433594 97.957031 207.085938 95.3125 208.015625 92.703125 C 208.90625 90.21875 210.054688 87.785156 211.121094 86.25 C 211.222656 86.109375 211.320312 85.96875 211.421875 85.832031 C 195.945312 76.996094 181.953125 82.714844 175.726562 93.019531 C 169.554688 103.230469 171.101562 117.832031 186.273438 126.992188 L 187.59375 124.550781 C 186.261719 124.160156 185.097656 123.65625 184.121094 122.996094 C 183.304688 122.441406 182.605469 121.796875 182.046875 121.054688 C 181.34375 120.128906 180.832031 119.089844 180.523438 117.921875 C 180.253906 116.898438 180.128906 115.808594 180.148438 114.617188 C 180.125 114.359375 180.316406 114.132812 180.574219 114.109375 C 180.832031 114.082031 181.0625 114.273438 181.09375 114.527344 C 181.265625 115.359375 181.519531 116.105469 181.816406 116.816406 C 182.277344 117.914062 182.914062 118.824219 183.703125 119.625 C 184.207031 120.136719 184.78125 120.582031 185.429688 120.984375 C 186.316406 121.539062 187.339844 122.011719 188.542969 122.347656 L 188.753906 122.402344 L 190.019531 120.070312 L 189.480469 119.605469 L 189.476562 119.605469 C 187.664062 117.90625 186.292969 116.074219 185.410156 114.085938 C 184.78125 112.667969 184.382812 111.175781 184.234375 109.621094 C 184.066406 107.824219 184.210938 105.945312 184.667969 103.992188 C 185.058594 102.320312 185.675781 100.601562 186.507812 98.816406 C 186.605469 98.578125 186.878906 98.460938 187.121094 98.554688 C 187.363281 98.648438 187.484375 98.921875 187.394531 99.164062 C 186.949219 100.578125 186.640625 101.933594 186.425781 103.246094 C 186.078125 105.414062 186.085938 107.429688 186.410156 109.332031 C 186.636719 110.644531 187.027344 111.890625 187.589844 113.089844 C 188.390625 114.792969 189.539062 116.394531 191.101562 117.871094 L 191.667969 118.378906 C 199.898438 118.472656 207.507812 119.652344 214.503906 121.921875 C 214.472656 121.417969 214.460938 120.875 214.46875 120.304688 C 214.488281 119.046875 214.617188 117.644531 214.917969 116.15625 C 215.109375 115.21875 215.355469 114.246094 215.71875 113.257812 C 215.941406 112.648438 216.183594 112.023438 216.511719 111.417969 C 217.019531 110.480469 217.664062 109.609375 218.398438 108.699219 C 218.515625 108.511719 218.761719 108.445312 218.953125 108.558594 C 219.144531 108.667969 219.214844 108.914062 219.109375 109.109375 C 218.710938 110.140625 218.46875 111.132812 218.195312 112.101562 C 218.019531 112.710938 217.839844 113.296875 217.6875 113.875 C 217.449219 114.800781 217.253906 115.691406 217.121094 116.550781 C 216.910156 117.914062 216.839844 119.183594 216.839844 120.324219 C 216.835938 121.695312 216.9375 122.878906 217.058594 123.808594 C 217.085938 123.871094 217.101562 123.941406 217.113281 124.011719 C 219.433594 137.726562 230.007812 149.234375 247.386719 149.617188 C 247.421875 149.613281 247.457031 149.613281 247.492188 149.617188 C 247.511719 149.617188 247.53125 149.617188 247.550781 149.617188 C 247.875 149.625 248.207031 149.625 248.535156 149.625 C 249.742188 149.589844 251.476562 149.394531 253.523438 148.746094 C 254.699219 148.371094 255.976562 147.851562 257.328125 147.128906 C 258.71875 146.382812 260.175781 145.429688 261.695312 144.207031 C 262.96875 143.175781 264.296875 142 265.621094 140.550781 C 265.773438 140.359375 266.046875 140.328125 266.238281 140.476562 C 266.429688 140.625 266.464844 140.902344 266.320312 141.09375 C 265.1875 142.796875 264.046875 144.253906 262.855469 145.476562 C 261.386719 146.992188 259.882812 148.144531 258.433594 149.042969 C 256.980469 149.945312 255.570312 150.570312 254.265625 151.007812 C 252.390625 151.640625 250.734375 151.882812 249.4375 151.960938 L 248.523438 153.652344 C 249.816406 154.039062 251.015625 154.207031 252.125 154.269531 C 252.988281 154.316406 253.789062 154.308594 254.558594 154.175781 C 255.953125 153.9375 257.210938 153.429688 258.367188 152.535156 C 258.554688 152.359375 258.851562 152.363281 259.035156 152.550781 C 259.214844 152.734375 259.214844 153.03125 259.03125 153.214844 C 258.367188 154.042969 257.621094 154.71875 256.773438 155.261719 C 255.894531 155.824219 254.921875 156.214844 253.84375 156.441406 C 253.058594 156.605469 252.214844 156.660156 251.328125 156.613281 C 250.203125 156.550781 249.007812 156.289062 247.730469 155.894531 L 247.375 155.773438 L 246.914062 156.628906 C 262.847656 163.433594 274.949219 158.722656 281.25 150.03125 C 287.019531 142.074219 287.925781 130.859375 282.417969 122.425781 C 278.871094 116.992188 272.660156 112.746094 263.4375 111.214844 C 263.535156 113.160156 263.796875 114.953125 264.242188 116.574219 C 264.59375 117.855469 265.050781 119.027344 265.664062 120.085938 C 267.023438 122.4375 269.097656 124.226562 272.167969 125.320312 C 272.421875 125.402344 272.566406 125.671875 272.492188 125.925781 C 272.414062 126.179688 272.144531 126.328125 271.890625 126.253906 Z M 271.890625 126.253906 " fill-opacity="1" fill-rule="evenodd"/></g></g></g><path fill="#7b2626" d="M 132.601562 213.003906 C 131.839844 216.46875 128.410156 218.660156 124.949219 217.898438 L 99.191406 212.222656 C 95.730469 211.460938 93.539062 208.035156 94.300781 204.566406 C 95.0625 201.101562 98.492188 198.914062 101.953125 199.675781 L 127.710938 205.347656 C 131.171875 206.113281 133.367188 209.542969 132.601562 213.003906 " fill-opacity="1" fill-rule="nonzero"/><path fill="#7b2626" d="M 242.390625 213.003906 C 243.152344 216.46875 246.582031 218.660156 250.046875 217.898438 L 275.800781 212.222656 C 279.265625 211.460938 281.457031 208.035156 280.695312 204.566406 C 279.929688 201.101562 276.5 198.914062 273.035156 199.675781 L 247.28125 205.347656 C 243.820312 206.113281 241.625 209.542969 242.390625 213.003906 " fill-opacity="1" fill-rule="nonzero"/><path fill="#b4393d" d="M 123.703125 198.101562 C 121.234375 217.671875 123.519531 237.242188 130.578125 256.8125 C 132.550781 262.019531 138.792969 268.257812 144 270.234375 C 172.996094 280.6875 201.996094 280.6875 230.996094 270.234375 C 236.199219 268.257812 242.441406 262.019531 244.414062 256.8125 C 251.472656 237.242188 253.757812 217.671875 251.289062 198.101562 L 123.703125 198.101562 " fill-opacity="1" fill-rule="nonzero"/><path fill="#7b2626" d="M 252.25 192.976562 C 252.207031 182.144531 225.832031 169.753906 192.03125 164.925781 C 158.230469 160.101562 129.441406 164.609375 126.371094 175 L 252.25 192.976562 " fill-opacity="1" fill-rule="nonzero"/><path fill="#4d1614" d="M 209.152344 158.835938 C 208.464844 163.652344 204 166.996094 199.183594 166.308594 L 184.777344 164.25 C 179.960938 163.566406 176.609375 159.101562 177.300781 154.285156 C 177.988281 149.46875 182.449219 146.121094 187.265625 146.8125 L 201.675781 148.867188 C 206.496094 149.558594 209.839844 154.019531 209.152344 158.835938 " fill-opacity="1" fill-rule="nonzero"/><g clip-path="url(#8746772c5c)"><path fill="#ffffff" d="M 145.578125 192.242188 C 145.671875 190.125 149.140625 184.957031 149.660156 183.304688 C 150.859375 179.460938 151.054688 175.449219 149.785156 171.589844 C 145.636719 158.980469 130.261719 152.664062 130.175781 138.289062 C 130.136719 131.472656 133.117188 124.582031 137.820312 119.6875 C 139.933594 117.484375 142.433594 115.765625 144.992188 114.125 C 146.492188 115.132812 142.234375 120.515625 141.777344 121.53125 C 140.523438 124.34375 139.339844 127.132812 138.765625 130.167969 C 137.625 136.214844 139.152344 142.085938 142.933594 146.902344 C 146.765625 151.785156 151.691406 155.761719 154.621094 161.324219 C 158.253906 168.207031 159.019531 176.761719 155.246094 183.773438 C 154.019531 186.039062 152.324219 188.054688 150.394531 189.753906 C 150.109375 190.003906 146.066406 193.265625 145.773438 192.957031 C 145.621094 192.796875 145.5625 192.550781 145.578125 192.242188 " fill-opacity="1" fill-rule="nonzero"/></g><path fill="#ffffff" d="M 166.378906 173.839844 C 166.425781 172.734375 168.246094 170.019531 168.519531 169.15625 C 169.148438 167.140625 169.25 165.035156 168.585938 163.011719 C 166.410156 156.398438 158.34375 153.085938 158.300781 145.550781 C 158.277344 141.972656 159.84375 138.359375 162.308594 135.789062 C 163.417969 134.636719 164.730469 133.734375 166.070312 132.875 C 166.855469 133.402344 164.625 136.226562 164.386719 136.757812 C 163.726562 138.234375 163.105469 139.699219 162.804688 141.289062 C 162.207031 144.457031 163.007812 147.539062 164.992188 150.0625 C 167 152.625 169.582031 154.710938 171.121094 157.628906 C 173.023438 161.238281 173.429688 165.722656 171.445312 169.398438 C 170.804688 170.589844 169.914062 171.648438 168.902344 172.535156 C 168.753906 172.667969 166.636719 174.378906 166.480469 174.214844 C 166.402344 174.132812 166.371094 174.003906 166.378906 173.839844 " fill-opacity="1" fill-rule="nonzero"/><path fill="#ffffff" d="M 133.855469 184.664062 C 133.710938 183.773438 134.726562 181.320312 134.800781 180.585938 C 134.972656 178.882812 134.714844 177.191406 133.859375 175.6875 C 131.058594 170.773438 124.105469 169.445312 122.847656 163.453125 C 122.253906 160.609375 122.914062 157.480469 124.460938 155.039062 C 125.152344 153.941406 126.054688 153.007812 126.980469 152.109375 C 127.691406 152.402344 126.371094 155.011719 126.265625 155.472656 C 125.980469 156.753906 125.726562 158.019531 125.742188 159.335938 C 125.78125 161.953125 126.914062 164.273438 128.90625 165.964844 C 130.917969 167.675781 133.308594 168.917969 135.007812 170.992188 C 137.105469 173.554688 138.152344 177.0625 137.171875 180.308594 C 136.851562 181.359375 136.316406 182.34375 135.652344 183.214844 C 135.554688 183.347656 134.148438 185.046875 134 184.945312 C 133.921875 184.890625 133.875 184.796875 133.855469 184.664062 " fill-opacity="1" fill-rule="nonzero"/><g clip-path="url(#2d67bcc718)"><g clip-path="url(#7a3a26dbf1)"><g clip-path="url(#ee3f7893bf)"><path fill="#ffffff" d="M 208.457031 293.664062 C 211.300781 298.480469 215.015625 308.339844 232.136719 307.105469 C 248.652344 305.910156 261.761719 298.730469 262.445312 290.441406 C 262.445312 290.546875 262.457031 290.652344 262.453125 290.757812 C 262.453125 290.667969 262.457031 290.585938 262.457031 290.5 C 262.46875 290.34375 262.464844 290.1875 262.464844 290.03125 C 262.46875 289.867188 262.480469 289.703125 262.476562 289.539062 C 262.484375 289.394531 262.480469 289.25 262.480469 289.105469 C 262.488281 288.957031 262.496094 288.804688 262.492188 288.652344 C 262.503906 288.523438 262.496094 288.390625 262.5 288.257812 C 262.496094 288.371094 262.480469 288.488281 262.472656 288.601562 C 262.011719 280.746094 249.226562 272.542969 232.816406 270.824219 C 215.757812 269.039062 211.976562 278.378906 208.667969 282.578125 C 206.21875 285.683594 201.207031 285.289062 201.207031 285.289062 C 201.207031 285.289062 197.078125 284.992188 188.28125 284.148438 C 179.859375 283.34375 135.789062 278.792969 127.78125 278.640625 C 120.253906 278.5 113.253906 277.507812 112.59375 284.554688 C 112.589844 284.472656 112.578125 284.394531 112.578125 284.3125 L 112.578125 284.171875 C 112.5625 284.441406 112.558594 284.726562 112.5625 285.019531 C 112.546875 285.335938 112.535156 285.660156 112.542969 286.007812 L 112.546875 286.039062 C 112.539062 286.21875 112.527344 286.394531 112.527344 286.582031 C 112.535156 286.445312 112.546875 286.320312 112.554688 286.191406 C 112.9375 294.613281 126.378906 293.183594 126.378906 293.183594 C 126.378906 293.183594 179.28125 291.460938 188.101562 290.984375 C 197.648438 290.464844 201.109375 290.445312 201.109375 290.445312 C 201.109375 290.445312 206.40625 290.1875 208.457031 293.664062 " fill-opacity="1" fill-rule="nonzero"/></g></g></g></svg>